<?xml version="1.0" encoding="utf-8"?>
<!-- Generator: Adobe Illustrator 26.1.0, SVG Export Plug-In . SVG Version: 6.00 Build 0)  -->
<svg version="1.1" id="Layer_1" xmlns="http://www.w3.org/2000/svg" xmlns:xlink="http://www.w3.org/1999/xlink" x="0px" y="0px"
	 viewBox="0 0 805.2 805.2" style="enable-background:new 0 0 805.2 805.2;" xml:space="preserve">
<path d="M549.9,255.3C549.9,146.2,490.7,51,402.6,0c-88.1,51-147.3,146.2-147.3,255.3C146.2,255.3,51,314.5,0,402.6
	c51,88.1,146.2,147.3,255.3,147.3c0,109.1,59.3,204.3,147.3,255.3c88.1-51,147.3-146.2,147.3-255.3c109.1,0,204.3-59.3,255.3-147.3
	C754.2,314.5,659,255.3,549.9,255.3z M402.6,510.5c-44.7-25.9-82-63.2-107.9-107.9c25.9-44.7,63.2-82,107.9-107.9
	c44.7,25.9,82,63.2,107.9,107.9C484.6,447.3,447.3,484.6,402.6,510.5z"/>
</svg>
